<svg width="24" height="25" viewBox="0 0 24 25" fill="none" xmlns="http://www.w3.org/2000/svg">
<path d="M8.6672 12.7676C8.6672 10.9267 10.1591 9.43398 12 9.43398C13.8409 9.43398 15.3336 10.9267 15.3336 12.7676C15.3336 14.6085 13.8409 16.1012 12 16.1012C10.1591 16.1012 8.6672 14.6085 8.6672 12.7676ZM6.86512 12.7676C6.86512 15.6036 9.164 17.9025 12 17.9025C14.836 17.9025 17.1349 15.6036 17.1349 12.7676C17.1349 9.93158 14.836 7.6327 12 7.6327C9.164 7.6327 6.86512 9.93158 6.86512 12.7676ZM16.1382 7.4291C16.1381 7.66644 16.2084 7.89847 16.3401 8.09586C16.4719 8.29326 16.6593 8.44714 16.8785 8.53805C17.0977 8.62896 17.339 8.65282 17.5718 8.60661C17.8046 8.5604 18.0185 8.4462 18.1863 8.27845C18.3542 8.11069 18.4686 7.89692 18.515 7.66416C18.5614 7.4314 18.5377 7.19011 18.447 6.9708C18.3563 6.75149 18.2025 6.56402 18.0052 6.43208C17.808 6.30014 17.576 6.22967 17.3386 6.22958H17.3382C17.02 6.22973 16.715 6.35614 16.49 6.58104C16.265 6.80595 16.1384 7.11097 16.1382 7.4291V7.4291ZM7.96 20.9073C6.98504 20.8629 6.45512 20.7005 6.10296 20.5633C5.63608 20.3816 5.30296 20.1651 4.95272 19.8153C4.60248 19.4656 4.38568 19.1328 4.20472 18.6659C4.06744 18.3139 3.90504 17.7838 3.86072 16.8089C3.81224 15.7548 3.80256 15.4381 3.80256 12.7677C3.80256 10.0972 3.81304 9.78142 3.86072 8.72646C3.90512 7.7515 4.06872 7.22246 4.20472 6.86942C4.38648 6.40254 4.60296 6.06942 4.95272 5.71918C5.30248 5.36894 5.63528 5.15214 6.10296 4.97118C6.45496 4.8339 6.98504 4.6715 7.96 4.62718C9.01408 4.5787 9.33072 4.56902 12 4.56902C14.6693 4.56902 14.9862 4.5795 16.0412 4.62718C17.0162 4.67158 17.5452 4.83518 17.8982 4.97118C18.3651 5.15214 18.6982 5.36942 19.0485 5.71918C19.3987 6.06894 19.6147 6.40254 19.7965 6.86942C19.9338 7.22142 20.0962 7.7515 20.1405 8.72646C20.189 9.78142 20.1986 10.0972 20.1986 12.7677C20.1986 15.4381 20.189 15.7539 20.1405 16.8089C20.0961 17.7838 19.9329 18.3137 19.7965 18.6659C19.6147 19.1328 19.3982 19.4659 19.0485 19.8153C18.6987 20.1648 18.3651 20.3816 17.8982 20.5633C17.5462 20.7006 17.0162 20.863 16.0412 20.9073C14.9871 20.9558 14.6705 20.9655 12 20.9655C9.32952 20.9655 9.01376 20.9558 7.96 20.9073V20.9073ZM7.8772 2.82814C6.81264 2.87662 6.0852 3.04542 5.44992 3.29262C4.792 3.5479 4.23504 3.89038 3.67848 4.44606C3.12192 5.00174 2.78032 5.55958 2.52504 6.2175C2.27784 6.85318 2.10904 7.58022 2.06056 8.64478C2.01128 9.71102 2 10.0519 2 12.7676C2 15.4833 2.01128 15.8241 2.06056 16.8904C2.10904 17.955 2.27784 18.682 2.52504 19.3177C2.78032 19.9752 3.122 20.5337 3.67848 21.0891C4.23496 21.6445 4.792 21.9865 5.44992 22.2425C6.0864 22.4897 6.81264 22.6585 7.8772 22.707C8.944 22.7555 9.28432 22.7676 12 22.7676C14.7157 22.7676 15.0566 22.7563 16.1228 22.707C17.1874 22.6585 17.9144 22.4897 18.5501 22.2425C19.2076 21.9865 19.765 21.6448 20.3215 21.0891C20.8781 20.5334 21.219 19.9752 21.475 19.3177C21.7222 18.682 21.8918 17.9549 21.9394 16.8904C21.9879 15.8233 21.9992 15.4833 21.9992 12.7676C21.9992 10.0519 21.9879 9.71102 21.9394 8.64478C21.891 7.58014 21.7222 6.85278 21.475 6.2175C21.219 5.55998 20.8772 5.00262 20.3215 4.44606C19.7658 3.8895 19.2076 3.5479 18.5509 3.29262C17.9144 3.04542 17.1874 2.87582 16.1236 2.82814C15.0574 2.77966 14.7165 2.76758 12.0008 2.76758C9.28512 2.76758 8.944 2.77886 7.8772 2.82814Z" fill="#060F42"/>
</svg>
