<svg width="24" height="25" viewBox="0 0 24 25" fill="none" xmlns="http://www.w3.org/2000/svg">
<path d="M20 14.5764V20.7676H16.5699V14.9913C16.5699 13.5409 16.0747 12.5505 14.8328 12.5505C13.885 12.5505 13.322 13.2173 13.0734 13.863C12.9831 14.0937 12.9598 14.4142 12.9598 14.7378V20.7673H9.52945C9.52945 20.7673 9.57549 10.9842 9.52945 9.97153H12.96V11.5014C12.9531 11.5134 12.9434 11.5252 12.9373 11.5367H12.96V11.5014C13.4159 10.7674 14.2288 9.71802 16.0514 9.71802C18.3081 9.71802 20 11.261 20 14.5764ZM5.94104 4.76758C4.76767 4.76758 4 5.5736 4 6.63259C4 7.6691 4.74541 8.49841 5.89602 8.49841H5.91827C7.11466 8.49841 7.85854 7.6691 7.85854 6.63259C7.83577 5.5736 7.11466 4.76758 5.94104 4.76758ZM4.20388 20.7676H7.63292V9.97153H4.20388V20.7676Z" fill="#060F42"/>
</svg>
