<svg width="161" height="41" viewBox="0 0 161 41" fill="none" xmlns="http://www.w3.org/2000/svg">
<path fill-rule="evenodd" clip-rule="evenodd" d="M35.4531 39.1355H53.1776L61.068 11.1699H43.3435L35.4531 39.1355ZM41.5322 27.6069H53.3363L54.9888 22.6985H43.1847L41.5322 27.6069Z" fill="#D9D9D9"/>
<path fill-rule="evenodd" clip-rule="evenodd" d="M13.1528 17.3817L6.37891 19.538L27.8686 40.7682L33.1715 39.1272L42.8803 5.0007L41.5779 0L26.6337 3.7599L27.471 8.529L36.4062 6.2772L29.0765 34.1961L13.1528 17.3817Z" fill="#D9D9D9"/>
<path fill-rule="evenodd" clip-rule="evenodd" d="M25.6318 22.5675L27.4139 16.8951L17.3462 6.07227L1 10.1692L2.2169 15.3585L15.2155 11.7204L25.6318 22.5675Z" fill="#D9D9D9" stroke="#D9D9D9" stroke-width="0.0762" stroke-miterlimit="22.9256"/>
<path fill-rule="evenodd" clip-rule="evenodd" d="M55.6758 39.1356L152.646 39.1257L160.372 11.1602H63.5584L55.6758 39.1356V39.1356ZM135.442 36.9214V13.3706H149.935C157.693 15.3192 155.176 28.1715 149.935 28.5582L143.267 28.5891L140.798 25.496V36.9254L135.442 36.9214ZM147.919 18.3387C149.842 18.2768 151.205 23.1486 147.919 23.5971L140.798 23.5199V18.3696L147.919 18.3387ZM109.971 36.8943H104.142V13.3706H114.173L118.985 27.6396L123.797 13.3706H133.843V36.8943H127.999L127.935 19.4682L121.968 36.9254H118.985H116.002L110.035 19.4682L109.971 36.8943V36.8943ZM102.908 26.1558C102.908 28.9733 102.038 32.3475 100.037 34.1775C98.0367 36.0077 95.4233 36.9254 92.1973 36.9254C88.9471 36.9254 86.3157 36.0077 84.2971 34.1775C82.2786 32.3475 81.4753 29.0318 81.4753 26.2143V24.1934C81.4753 21.3864 82.274 17.9552 84.2852 16.1237C86.2991 14.2898 88.9232 13.3706 92.1613 13.3706C95.3753 13.3706 97.9933 14.2898 100.013 16.1237C102.03 17.9552 102.908 21.3279 102.908 24.1347V26.1558V26.1558ZM97.1055 24.2624C97.1055 22.6256 96.6758 21.2862 95.8138 20.2373C94.9515 19.1879 93.7352 18.6648 92.1613 18.6648C90.5571 18.6648 89.3238 19.184 88.4725 20.2266C87.6236 21.2663 87.1988 22.6148 87.1988 24.2624V25.9395C87.1988 27.5978 87.6296 28.9517 88.4905 29.9967C89.3538 31.0448 90.5932 31.5693 92.1973 31.5693C93.7592 31.5693 94.9686 31.0448 95.826 29.9967C96.6808 28.9517 97.1055 27.5978 97.1055 25.9395V24.2624ZM81.5255 36.9254V31.2308H70.3709C68.1984 31.2308 65.1108 21.8553 70.3709 18.6606L78.8342 18.5981L81.72 13.373H69.4305C61.5633 13.1174 55.7145 33.8471 69.4305 36.9018L81.5255 36.9254V36.9254Z" fill="#D9D9D9"/>
</svg>
