<svg width="50" height="32" viewBox="0 0 50 32" fill="none" xmlns="http://www.w3.org/2000/svg">
<g clip-path="url(#clip0_9967_67680)">
<path d="M29.3664 23.5039H20.6172V8.27148H29.3664V23.5039Z" fill="#FF5F00"/>
<path d="M21.1757 15.8867C21.1757 12.7967 22.6692 10.0443 24.9948 8.27049C23.2941 6.97341 21.1478 6.19922 18.8151 6.19922C13.2929 6.19922 8.81641 10.5364 8.81641 15.8867C8.81641 21.237 13.2929 25.5742 18.8151 25.5742C21.1478 25.5742 23.2941 24.8 24.9948 23.5029C22.6692 21.7292 21.1757 18.9767 21.1757 15.8867Z" fill="#EB001B"/>
<path d="M41.1634 15.8867C41.1634 21.237 36.687 25.5742 31.1647 25.5742C28.832 25.5742 26.6857 24.8 24.9844 23.5029C27.3107 21.7292 28.8041 18.9767 28.8041 15.8867C28.8041 12.7967 27.3107 10.0443 24.9844 8.27049C26.6857 6.97341 28.832 6.19922 31.1647 6.19922C36.687 6.19922 41.1634 10.5364 41.1634 15.8867Z" fill="#F79E1B"/>
<path d="M16.3388 15.9486C16.3388 15.5255 16.6251 15.1779 17.0928 15.1779C17.5397 15.1779 17.8414 15.5105 17.8414 15.9486C17.8414 16.3868 17.5397 16.7194 17.0928 16.7194C16.6251 16.7194 16.3388 16.3718 16.3388 15.9486ZM18.3508 15.9486V14.7449H17.8105V15.0372C17.6391 14.8204 17.3791 14.6844 17.0256 14.6844C16.3287 14.6844 15.7824 15.2136 15.7824 15.9486C15.7824 16.6842 16.3287 17.2129 17.0256 17.2129C17.3791 17.2129 17.6391 17.0768 17.8105 16.8601V17.1524H18.3508V15.9486ZM36.6106 15.9486C36.6106 15.5255 36.8969 15.1779 37.3646 15.1779C37.8121 15.1779 38.1132 15.5105 38.1132 15.9486C38.1132 16.3868 37.8121 16.7194 37.3646 16.7194C36.8969 16.7194 36.6106 16.3718 36.6106 15.9486ZM38.6232 15.9486V13.7781H38.0823V15.0372C37.9109 14.8204 37.6509 14.6844 37.2974 14.6844C36.6005 14.6844 36.0542 15.2136 36.0542 15.9486C36.0542 16.6842 36.6005 17.2129 37.2974 17.2129C37.6509 17.2129 37.9109 17.0768 38.0823 16.8601V17.1524H38.6232V15.9486ZM25.0581 15.1531C25.4063 15.1531 25.63 15.3646 25.6871 15.7371H24.3976C24.4553 15.3894 24.6731 15.1531 25.0581 15.1531ZM25.0688 14.6844C24.3404 14.6844 23.831 15.198 23.831 15.9486C23.831 16.7142 24.3613 17.2129 25.1051 17.2129C25.4794 17.2129 25.8222 17.1224 26.1239 16.8756L25.8591 16.4877C25.6508 16.6485 25.3854 16.7396 25.1361 16.7396C24.788 16.7396 24.4708 16.5834 24.3928 16.1498H26.2382C26.2435 16.0847 26.2489 16.019 26.2489 15.9486C26.2435 15.198 25.7651 14.6844 25.0688 14.6844ZM31.5934 15.9486C31.5934 15.5255 31.8797 15.1779 32.3474 15.1779C32.7943 15.1779 33.096 15.5105 33.096 15.9486C33.096 16.3868 32.7943 16.7194 32.3474 16.7194C31.8797 16.7194 31.5934 16.3718 31.5934 15.9486ZM33.6054 15.9486V14.7449H33.0651V15.0372C32.8931 14.8204 32.6336 14.6844 32.2802 14.6844C31.5833 14.6844 31.037 15.2136 31.037 15.9486C31.037 16.6842 31.5833 17.2129 32.2802 17.2129C32.6336 17.2129 32.8931 17.0768 33.0651 16.8601V17.1524H33.6054V15.9486ZM28.5418 15.9486C28.5418 16.6791 29.0667 17.2129 29.8677 17.2129C30.242 17.2129 30.4913 17.1322 30.7615 16.9258L30.502 16.5026C30.2991 16.6439 30.0861 16.7194 29.8516 16.7194C29.4201 16.7142 29.103 16.4121 29.103 15.9486C29.103 15.4851 29.4201 15.1831 29.8516 15.1779C30.0861 15.1779 30.2991 15.2534 30.502 15.3946L30.7615 14.9715C30.4913 14.7651 30.242 14.6844 29.8677 14.6844C29.0667 14.6844 28.5418 15.2182 28.5418 15.9486ZM35.5085 14.6844C35.1967 14.6844 34.9938 14.8256 34.8533 15.0372V14.7449H34.3178V17.1524H34.8587V15.8028C34.8587 15.4044 35.0354 15.1831 35.3889 15.1831C35.4984 15.1831 35.6127 15.198 35.7269 15.2436L35.8936 14.7501C35.7739 14.7046 35.618 14.6844 35.5085 14.6844ZM21.0234 14.9363C20.7633 14.7703 20.4051 14.6844 20.01 14.6844C19.3804 14.6844 18.9751 14.9767 18.9751 15.4552C18.9751 15.8478 19.2768 16.0899 19.8326 16.1654L20.0879 16.2006C20.3843 16.2409 20.5241 16.3164 20.5241 16.4525C20.5241 16.6387 20.3266 16.7448 19.9576 16.7448C19.5833 16.7448 19.3131 16.6289 19.131 16.4928L18.8763 16.9004C19.1727 17.112 19.547 17.2129 19.9522 17.2129C20.6699 17.2129 21.0859 16.8854 21.0859 16.4271C21.0859 16.004 20.7586 15.7826 20.2176 15.7071L19.963 15.6713C19.7291 15.6414 19.5416 15.5964 19.5416 15.435C19.5416 15.2586 19.7184 15.1531 20.0147 15.1531C20.3319 15.1531 20.639 15.2689 20.7895 15.3595L21.0234 14.9363ZM27.9955 14.6844C27.6837 14.6844 27.4807 14.8256 27.3409 15.0372V14.7449H26.8053V17.1524H27.3457V15.8028C27.3457 15.4044 27.5224 15.1831 27.8759 15.1831C27.9854 15.1831 28.0996 15.198 28.2139 15.2436L28.3805 14.7501C28.2609 14.7046 28.105 14.6844 27.9955 14.6844ZM23.3841 14.7449H22.5004V14.0145H21.9541V14.7449H21.4501V15.2234H21.9541V16.3216C21.9541 16.8803 22.1779 17.2129 22.817 17.2129C23.0515 17.2129 23.3216 17.1426 23.493 17.0267L23.3371 16.5782C23.1759 16.6687 22.9991 16.7142 22.8587 16.7142C22.5885 16.7142 22.5004 16.5528 22.5004 16.3113V15.2234H23.3841V14.7449ZM15.3046 17.1524V15.6414C15.3046 15.0724 14.9303 14.6896 14.3268 14.6844C14.0097 14.6792 13.6824 14.7749 13.4532 15.1127C13.2819 14.8458 13.0117 14.6844 12.632 14.6844C12.3666 14.6844 12.1071 14.7599 11.9042 15.0418V14.7449H11.3633V17.1524H11.909V15.8178C11.909 15.3998 12.1482 15.1779 12.5178 15.1779C12.8766 15.1779 13.0581 15.4044 13.0581 15.8126V17.1524H13.6044V15.8178C13.6044 15.3998 13.8537 15.1779 14.2126 15.1779C14.5815 15.1779 14.7583 15.4044 14.7583 15.8126V17.1524H15.3046Z" fill="white"/>
</g>
<defs>
<clipPath id="clip0_9967_67680">
<rect width="50" height="31" fill="white" transform="translate(0 0.384766)"/>
</clipPath>
</defs>
</svg>
