<svg width="19" height="16" viewBox="0 0 19 16" fill="none" xmlns="http://www.w3.org/2000/svg">
<path d="M17.1408 0.0604042C17.7787 -0.188466 18.4381 0.369654 18.298 1.03976L15.4374 14.7136C15.3038 15.3547 14.5506 15.6434 14.0227 15.2556L9.70426 12.0857L7.50306 14.3333C7.11626 14.7277 6.44936 14.5671 6.28336 14.0413L4.69526 8.99986L0.438276 7.74256C-0.120914 7.57766 -0.153225 6.79976 0.388705 6.58756L17.1408 0.0604042ZM15.0409 3.09446C15.2273 2.92956 15.0107 2.63876 14.7995 2.77016L5.61106 8.46876C5.44936 8.56886 5.37506 8.76606 5.43216 8.94816L6.68526 14.4507C6.71006 14.5347 6.83066 14.5229 6.84146 14.4356L7.12156 10.2422C7.13236 10.1388 7.18185 10.044 7.25955 9.97506L15.0409 3.09446Z" fill="#060F42"/>
</svg>
