<svg width="32" height="33" viewBox="0 0 32 33" fill="none" xmlns="http://www.w3.org/2000/svg">
<g clip-path="url(#clip0_9967_63211)">
<path d="M16 32.7676C24.8366 32.7676 32 25.6041 32 16.7676C32 7.93102 24.8366 0.767578 16 0.767578C7.16344 0.767578 0 7.93102 0 16.7676C0 25.6041 7.16344 32.7676 16 32.7676Z" fill="#F4F8FB"/>
<path d="M24.4652 12.0128L24.4599 11.9917C24.0324 10.2634 22.1051 8.40891 20.3351 8.02309L20.3151 8.01897C17.4522 7.47284 14.5494 7.47284 11.6872 8.01897L11.6666 8.02309C9.89725 8.40891 7.96981 10.2635 7.54175 11.9917L7.537 12.0128C7.0085 14.4264 7.0085 16.8742 7.537 19.2877L7.54175 19.3088C7.95163 20.9633 9.73544 22.7327 11.4394 23.2193V25.1485C11.4394 25.8469 12.2903 26.1898 12.7742 25.6858L14.7289 23.654C15.1529 23.6777 15.5771 23.691 16.0011 23.691C17.4422 23.691 18.8839 23.5547 20.3151 23.2817L20.335 23.2775C22.105 22.8917 24.0324 21.0371 24.4599 19.3089L24.4651 19.2878C24.9936 16.8742 24.9936 14.4265 24.4652 12.0128ZM22.9182 18.9378C22.6328 20.0653 21.1694 21.4671 20.0067 21.7261C18.4845 22.0156 16.9502 22.1393 15.4174 22.0968C15.3869 22.096 15.3576 22.1078 15.3364 22.1297C15.1189 22.353 13.9092 23.5948 13.9092 23.5948L12.3912 25.1528C12.2802 25.2686 12.0852 25.1898 12.0852 25.0301V21.8341C12.0852 21.7813 12.0476 21.7365 11.9957 21.7262C11.9954 21.7261 11.9951 21.7261 11.9948 21.726C10.8321 21.467 9.36919 20.0653 9.08325 18.9377C8.60756 16.7561 8.60756 14.5445 9.08325 12.3628C9.36919 11.2353 10.8321 9.83353 11.9948 9.57453C14.6533 9.06891 17.3488 9.06891 20.0067 9.57453C21.1701 9.83353 22.6329 11.2353 22.9183 12.3628C23.3945 14.5445 23.3945 16.7562 22.9182 18.9378Z" fill="#060F42"/>
<path d="M18.5292 20.4132C18.3505 20.3588 18.1802 20.3224 18.0218 20.2568C16.3824 19.5766 14.8737 18.6991 13.6786 17.3541C12.999 16.5892 12.467 15.7256 12.0174 14.8118C11.8042 14.3784 11.6245 13.9281 11.4413 13.4806C11.2743 13.0726 11.5203 12.6511 11.7793 12.3436C12.0223 12.055 12.3352 11.8343 12.6739 11.6715C12.9383 11.5445 13.199 11.6177 13.3922 11.8418C13.8095 12.3263 14.193 12.8355 14.5034 13.3971C14.6943 13.7426 14.642 14.1648 14.2959 14.3999C14.2118 14.457 14.1352 14.5241 14.0568 14.5886C13.9881 14.6452 13.9235 14.7023 13.8763 14.7789C13.7903 14.919 13.7862 15.0843 13.8415 15.2366C14.2682 16.4091 14.9874 17.321 16.1677 17.8122C16.3566 17.8908 16.5462 17.9822 16.7638 17.9569C17.1282 17.9143 17.2462 17.5146 17.5016 17.3058C17.7512 17.1017 18.0702 17.099 18.339 17.2691C18.6079 17.4394 18.8685 17.622 19.1277 17.8067C19.382 17.988 19.6352 18.1651 19.8698 18.3718C20.0954 18.5705 20.1731 18.8311 20.046 19.1007C19.8135 19.5945 19.4751 20.0052 18.987 20.2675C18.8492 20.3413 18.6846 20.3653 18.5292 20.4132C18.6846 20.3653 18.3505 20.3588 18.5292 20.4132Z" fill="#060F42"/>
<path d="M16.0036 11.1063C18.1479 11.1664 19.9093 12.5895 20.2867 14.7095C20.351 15.0708 20.3739 15.44 20.4025 15.8067C20.4146 15.9609 20.3272 16.1074 20.1608 16.1094C19.989 16.1115 19.9116 15.9676 19.9004 15.8136C19.8783 15.5084 19.863 15.2019 19.821 14.8994C19.599 13.3019 18.3253 11.9804 16.7353 11.6968C16.4959 11.6541 16.2512 11.6429 16.0088 11.6175C15.8556 11.6014 15.6549 11.5922 15.621 11.4017C15.5926 11.242 15.7273 11.1149 15.8794 11.1067C15.9206 11.1043 15.9621 11.1062 16.0036 11.1063C15.9621 11.1062 18.1481 11.1664 16.0036 11.1063Z" fill="#060F42"/>
<path d="M19.2632 15.3311C19.2597 15.3579 19.2579 15.4208 19.2421 15.4801C19.1852 15.6953 18.8587 15.7223 18.7837 15.5051C18.7614 15.4407 18.758 15.3673 18.7579 15.2979C18.7572 14.8438 18.6585 14.39 18.4294 13.9948C18.194 13.5887 17.8342 13.2473 17.4124 13.0407C17.1573 12.9158 16.8815 12.8381 16.6018 12.7919C16.4797 12.7717 16.3562 12.7595 16.2333 12.7423C16.0845 12.7217 16.005 12.6268 16.0122 12.4802C16.0187 12.3428 16.1192 12.2439 16.2689 12.2525C16.761 12.2803 17.2363 12.3868 17.6739 12.6185C18.5635 13.0897 19.0718 13.8333 19.2202 14.8263C19.2269 14.8714 19.2376 14.9159 19.241 14.961C19.2494 15.0724 19.2547 15.184 19.2632 15.3311C19.2547 15.184 19.2597 15.3578 19.2632 15.3311Z" fill="#060F42"/>
<path d="M17.9318 15.2783C17.7524 15.2816 17.6564 15.1822 17.6379 15.0178C17.6251 14.9032 17.6148 14.787 17.5874 14.6753C17.5336 14.4555 17.4168 14.2519 17.2319 14.1172C17.1446 14.0536 17.0457 14.0073 16.9421 13.9773C16.8106 13.9393 16.6738 13.9498 16.5426 13.9177C16.4001 13.8827 16.3212 13.7672 16.3436 13.6335C16.364 13.5118 16.4824 13.4168 16.6154 13.4265C17.4468 13.4865 18.041 13.9163 18.1258 14.895C18.1319 14.9641 18.1389 15.037 18.1236 15.1032C18.0972 15.2162 18.0134 15.2728 17.9318 15.2783C18.0134 15.2728 17.7524 15.2815 17.9318 15.2783Z" fill="#060F42"/>
<path d="M18.5312 20.4137C18.6878 20.3654 18.351 20.3589 18.5312 20.4137V20.4137Z" fill="white"/>
<path d="M16.0039 11.1074C16.0057 11.1074 16.0075 11.1076 16.0093 11.1076C16.1283 11.1119 18.0638 11.1652 16.0039 11.1074Z" fill="white"/>
<path d="M19.2626 15.3318C19.254 15.1835 19.259 15.3587 19.2626 15.3318V15.3318Z" fill="white"/>
<path d="M17.9272 15.2791C17.9298 15.2789 17.9323 15.2776 17.9347 15.2773C17.9278 15.2773 17.9172 15.2775 17.9062 15.2779C17.9133 15.2781 17.9198 15.2792 17.9272 15.2791Z" fill="white"/>
<path d="M17.9277 15.2826C17.9196 15.2827 17.9125 15.2815 17.9047 15.2812C17.8659 15.2823 17.8259 15.2844 17.9277 15.2826Z" fill="white"/>
<path d="M17.9334 15.2773C17.9308 15.2776 17.9283 15.279 17.9258 15.2791C17.9452 15.2778 17.9436 15.2773 17.9334 15.2773Z" fill="white"/>
</g>
<defs>
<clipPath id="clip0_9967_63211">
<rect width="32" height="32" fill="white" transform="translate(0 0.767578)"/>
</clipPath>
</defs>
</svg>
