<svg width="50" height="33" viewBox="0 0 50 33" fill="none" xmlns="http://www.w3.org/2000/svg">
<path d="M19.6651 10.4883L14.9587 22.2811H11.8624L9.55046 12.8728C9.42661 12.3092 9.30275 12.0924 8.88991 11.8323C8.18807 11.4421 7.03211 11.0519 6 10.8351L6.08257 10.4883H11.0367C11.656 10.4883 12.2339 10.9218 12.3578 11.7022L13.5963 18.5525L16.6101 10.5316H19.6651V10.4883ZM31.7202 18.4224C31.7202 15.3008 27.633 15.1274 27.633 13.74C27.633 13.3064 28.0459 12.8728 28.8716 12.7428C29.2844 12.6994 30.4404 12.6561 31.7615 13.2631L32.2569 10.7484C31.555 10.5316 30.6468 10.2715 29.5321 10.2715C26.6422 10.2715 24.6193 11.8757 24.6193 14.1735C24.6193 15.8644 26.0642 16.8183 27.1789 17.3819C28.2936 17.9455 28.7064 18.3357 28.7064 18.856C28.7064 19.6364 27.7982 19.9832 26.9725 20.0266C25.5275 20.07 24.6606 19.593 24 19.2895L23.4633 21.8909C24.1239 22.2378 25.4037 22.4979 26.6835 22.4979C29.6972 22.4979 31.7202 20.8937 31.7202 18.4224ZM39.3165 22.2811H42L39.6468 10.4883H37.1697C36.5917 10.4883 36.1376 10.8351 35.9312 11.3554L31.555 22.2811H34.6101L35.2294 20.5035H38.945L39.3165 22.2811ZM36.055 18.1189L37.5826 13.6966L38.4495 18.1189H36.055ZM23.8349 10.4883L21.4404 22.2811H18.5505L20.945 10.4883H23.8349Z" fill="#F4F8FB"/>
</svg>
