<svg width="24" height="25" viewBox="0 0 24 25" fill="none" xmlns="http://www.w3.org/2000/svg">
<path fill-rule="evenodd" clip-rule="evenodd" d="M19.8253 6.19591C20.682 6.42655 21.3574 7.102 21.5881 7.95867C22.0164 9.52374 21.9999 12.7857 21.9999 12.7857C21.9999 12.7857 21.9999 16.0311 21.5881 17.5962C21.3574 18.4529 20.682 19.1283 19.8253 19.359C18.2602 19.7708 12 19.7708 12 19.7708C12 19.7708 5.75616 19.7708 4.17462 19.3425C3.31795 19.1118 2.6425 18.4364 2.41186 17.5797C2 16.0311 2 12.7692 2 12.7692C2 12.7692 2 9.52374 2.41186 7.95867C2.6425 7.102 3.33443 6.41008 4.17462 6.17944C5.73969 5.76758 12 5.76758 12 5.76758C12 5.76758 18.2602 5.76758 19.8253 6.19591ZM15 12.7692L10 15.7676V9.77087L15 12.7692Z" fill="#060F42"/>
</svg>
