<svg width="40" height="40" viewBox="0 0 40 40" fill="none" xmlns="http://www.w3.org/2000/svg">
<path d="M14.375 35.75C15.8247 35.75 17 34.5747 17 33.125C17 31.6753 15.8247 30.5 14.375 30.5C12.9253 30.5 11.75 31.6753 11.75 33.125C11.75 34.5747 12.9253 35.75 14.375 35.75Z" fill="#060F42"/>
<path d="M28.625 35.75C30.0747 35.75 31.25 34.5747 31.25 33.125C31.25 31.6753 30.0747 30.5 28.625 30.5C27.1753 30.5 26 31.6753 26 33.125C26 34.5747 27.1753 35.75 28.625 35.75Z" fill="#060F42"/>
<path d="M4.67969 6.5H8.75112L14.0012 22.25M10.4297 11.4883L33.2395 13.0773C34.2052 13.1446 34.9258 13.9943 34.8343 14.9581L34.4516 18.9903C34.376 19.7867 33.762 20.4263 32.9692 20.5341L12.5963 23.3053C11.413 23.4663 10.5998 24.5776 10.8045 25.7542V25.7542C10.9801 26.7633 11.856 27.5 12.8803 27.5H32.9654" stroke="#060F42" stroke-width="2" stroke-linecap="round" stroke-linejoin="round"/>
</svg>
