<svg width="40" height="40" viewBox="0 0 40 40" fill="none" xmlns="http://www.w3.org/2000/svg">
<path d="M22.5638 8.51015L22.564 8.50999C23.3666 7.71488 24.3201 7.08362 25.3703 6.65276C26.4204 6.22189 27.5464 6 28.6837 6C29.8211 6 30.947 6.22189 31.9972 6.65276C33.0474 7.08362 34.0009 7.71488 34.8035 8.50999L34.8038 8.51032C35.6068 9.30503 36.2433 10.2481 36.6773 11.2853C37.1114 12.3225 37.3346 13.4339 37.3346 14.5561C37.3346 15.6782 37.1114 16.7896 36.6773 17.8268C36.2433 18.864 35.6068 19.8071 34.8038 20.6018L34.8037 20.602L32.9443 22.4431L20.0008 35.2594L7.05735 22.4431L5.19798 20.602C3.57688 18.9968 2.66797 16.8218 2.66797 14.5561C2.66797 12.2903 3.57688 10.1153 5.19798 8.51015C6.81942 6.90465 9.02064 6.00093 11.3179 6.00093C13.6152 6.00093 15.8164 6.90465 17.4379 8.51015L19.2972 10.3513C19.6869 10.7371 20.3147 10.7371 20.7044 10.3513L22.5638 8.51015Z" stroke="#060F42" stroke-width="2" stroke-linecap="round" stroke-linejoin="round"/>
</svg>
