<svg width="166" height="42" viewBox="0 0 166 42" fill="none" xmlns="http://www.w3.org/2000/svg">
<path fill-rule="evenodd" clip-rule="evenodd" d="M36.4961 40.3183H54.7561L62.8849 11.5078H44.6249L36.4961 40.3183ZM42.7588 28.4415H54.9196L56.622 23.3847H44.4612L42.7588 28.4415Z" fill="#01579B"/>
<path fill-rule="evenodd" clip-rule="evenodd" d="M13.5216 17.9069L6.54297 20.1283L28.682 42L34.1451 40.3094L44.1472 5.15179L42.8054 0L27.4098 3.8735L28.2723 8.7867L37.4775 6.46686L29.9264 35.2293L13.5216 17.9069Z" fill="#01579B"/>
<path fill-rule="evenodd" clip-rule="evenodd" d="M26.376 23.2475L28.212 17.4037L17.8401 6.25391L1 10.4746L2.25367 15.8207L15.6451 12.0727L26.376 23.2475Z" fill="#01579B" stroke="#01579B" stroke-width="0.0762" stroke-miterlimit="22.9256"/>
<path fill-rule="evenodd" clip-rule="evenodd" d="M57.3281 40.3168L157.228 40.3066L165.187 11.4961H65.4489L57.3281 40.3168ZM139.504 38.0358V13.7733H154.435C162.427 15.7808 159.835 29.0214 154.435 29.4198L147.566 29.4516L145.023 26.265V38.0398L139.504 38.0358ZM152.358 18.8915C154.34 18.8277 155.743 23.8468 152.358 24.3088L145.023 24.2292V18.9234L152.358 18.8915ZM113.264 38.0078H107.259V13.7733H117.593L122.55 28.4735L127.507 13.7733H137.857V38.0078H131.836L131.77 20.0552L125.624 38.0398H122.55H119.477L113.33 20.0552L113.264 38.0078ZM105.988 26.9448C105.988 29.8474 105.091 33.3236 103.03 35.2089C100.969 37.0943 98.2766 38.0398 94.9532 38.0398C91.6047 38.0398 88.8938 37.0943 86.8143 35.2089C84.7347 33.3236 83.9072 29.9077 83.9072 27.0051V24.9231C83.9072 22.0313 84.73 18.4964 86.8019 16.6096C88.8767 14.7203 91.5801 13.7733 94.916 13.7733C98.2271 13.7733 100.924 14.7203 103.005 16.6096C105.083 18.4964 105.988 21.9711 105.988 24.8627V26.9448ZM100.01 24.9942C100.01 23.3079 99.567 21.9281 98.6789 20.8475C97.7906 19.7663 96.5375 19.2275 94.916 19.2275C93.2634 19.2275 91.9928 19.7623 91.1158 20.8365C90.2412 21.9075 89.8036 23.2968 89.8036 24.9942V26.722C89.8036 28.4303 90.2474 29.8252 91.1343 30.9018C92.0237 31.9815 93.3006 32.5219 94.9532 32.5219C96.5622 32.5219 97.8082 31.9815 98.6914 30.9018C99.5721 29.8252 100.01 28.4303 100.01 26.722V24.9942ZM83.9589 38.0398V32.1731H72.4672C70.2291 32.1731 67.0482 22.5144 72.4672 19.2232L81.1862 19.1587L84.1593 13.7758H71.4985C63.3935 13.5124 57.368 34.8685 71.4985 38.0155L83.9589 38.0398Z" fill="#01579B"/>
</svg>
