<svg width="24" height="21" viewBox="0 0 24 24" fill="none" xmlns="http://www.w3.org/2000/svg">
<path d="M7.46436 20.5C8.43085 20.5 9.21436 19.7165 9.21436 18.75C9.21436 17.7835 8.43085 17 7.46436 17C6.49786 17 5.71436 17.7835 5.71436 18.75C5.71436 19.7165 6.49786 20.5 7.46436 20.5Z" fill="#01579B"/>
<path d="M16.9644 20.5C17.9309 20.5 18.7144 19.7165 18.7144 18.75C18.7144 17.7835 17.9309 17 16.9644 17C15.9979 17 15.2144 17.7835 15.2144 18.75C15.2144 19.7165 15.9979 20.5 16.9644 20.5Z" fill="#01579B"/>
<path d="M1 1H3.71429L7.21433 11.5M4.83336 4.32556L19.4526 5.34395C20.4184 5.41122 21.1389 6.26099 21.0475 7.22472L20.891 8.87363C20.8154 9.67007 20.2013 10.3096 19.4086 10.4174L6.27777 12.2035C5.48885 12.3108 4.94676 13.0517 5.08324 13.8361V13.8361C5.20029 14.5089 5.78423 15 6.46709 15H19.8572" stroke="#01579B" stroke-width="1.5" stroke-linecap="round" stroke-linejoin="round"/>
</svg>
