<svg width="24" height="24" viewBox="0 0 24 24" fill="none" xmlns="http://www.w3.org/2000/svg">
<path d="M13.3034 7.43973L13.3035 7.43961C13.6075 7.13848 13.9688 6.89922 14.367 6.73584C14.7652 6.57247 15.1923 6.48828 15.6238 6.48828C16.0553 6.48828 16.4823 6.57247 16.8805 6.73584C17.2787 6.89922 17.6401 7.13848 17.944 7.43961L17.9443 7.43986C18.2484 7.74083 18.4892 8.09777 18.6534 8.49011C18.8176 8.88243 18.902 9.30267 18.902 9.72689C18.902 10.1511 18.8176 10.5713 18.6534 10.9637C18.4892 11.356 18.2484 11.7129 17.9443 12.0139L17.9442 12.014L17.1681 12.7825L11.9996 17.9002L6.83116 12.7825L6.05508 12.014C5.44118 11.4062 5.09766 10.5833 5.09766 9.72689C5.09766 8.87046 5.44118 8.0476 6.05508 7.43973C6.66922 6.83162 7.50375 6.48867 8.37545 6.48867C9.24715 6.48867 10.0817 6.83162 10.6958 7.43973L11.4719 8.20819C11.7642 8.4976 12.235 8.4976 12.5273 8.20819L13.3034 7.43973Z" stroke="#01579B" stroke-width="1.5" stroke-linecap="round" stroke-linejoin="round"/>
</svg>
